<?xml version="1.0" encoding="UTF-8"?>
<svg id="Capa_2" xmlns="http://www.w3.org/2000/svg" viewBox="0 0 1627.51 384.83">
  <defs>
    <style>
      .cls-1 {
        fill: #f21717;
      }
    </style>
  </defs>
  <g id="Capa_1-2" data-name="Capa_1">
    <g>
      <g>
        <path class="cls-1" d="M1321.24,1.47l-45.81,88.33C1263.26,53.84,1218.45.39,1146.48.39H481.96c-37.42,98.78-95.3,135.83-163.49,141.78L391.45,0h-218.38L0,331.44c204.51-101.56,402.58-144.77,620.33-185.82,72.69-15.04,126.86-45.41,159.72-93.39h30.68c-16.35,42.32-3.55,69.04,65.78,65.54,211.03-11.54,407.62.37,594.35,28.29L1546.12,1.47h-224.88Z"/>
        <path class="cls-1" d="M664.19,331.92h-37.32c46.68-159.09-244.67-85.31-406.22,43.85,117.14-50.87,212.17-58.43,177.13,8.52h455.12l18.78-37.1c-22.26-13.79-20.77-34.88-4.18-60.61h248.38c28.59-.57,48.03-.57,62.6-9.89l-56.09,108.14h224.62l107.99-208.2c-390.44-43.87-674.24-7.34-790.81,155.28Z"/>
      </g>
      <path class="cls-1" d="M1598.26,58.87c-5.34,0-10.24-1.2-14.68-3.61-4.44-2.41-7.98-5.81-10.61-10.22-2.64-4.4-3.95-9.54-3.95-15.41s1.32-10.99,3.95-15.36c2.63-4.36,6.17-7.77,10.61-10.22,4.44-2.45,9.33-3.67,14.68-3.67s10.33,1.22,14.73,3.67c4.4,2.45,7.92,5.85,10.56,10.22,2.63,4.37,3.95,9.48,3.95,15.36s-1.32,11.01-3.95,15.41c-2.64,4.4-6.15,7.81-10.56,10.22-4.4,2.41-9.31,3.61-14.73,3.61ZM1598.26,52.55c4.29,0,8.15-.94,11.57-2.82,3.42-1.88,6.15-4.55,8.19-8.02,2.03-3.46,3.05-7.49,3.05-12.08s-1.02-8.71-3.05-12.14c-2.03-3.42-4.76-6.08-8.19-7.96-3.43-1.88-7.28-2.82-11.57-2.82s-8.05.94-11.52,2.82c-3.46,1.88-6.21,4.54-8.24,7.96-2.03,3.43-3.05,7.47-3.05,12.14s1.02,8.62,3.05,12.08c2.03,3.46,4.78,6.14,8.24,8.02,3.46,1.88,7.3,2.82,11.52,2.82ZM1588.89,45.77V13.37h10.84c3.91,0,6.74.85,8.47,2.54,1.73,1.69,2.6,3.97,2.6,6.83,0,2.33-.55,4.23-1.64,5.7-1.09,1.47-2.62,2.54-4.57,3.22l7.23,14.11h-6.66l-6.44-13.44h-3.73v13.44h-6.1ZM1595.1,26.92h3.95c1.5,0,2.82-.26,3.95-.79,1.13-.53,1.69-1.66,1.69-3.39s-.56-2.73-1.69-3.22c-1.13-.49-2.45-.73-3.95-.73h-3.95v8.13Z"/>
    </g>
  </g>
</svg>
